<?xml version="1.0" encoding="UTF-8"?>
<svg id="Capa_1" xmlns="http://www.w3.org/2000/svg" version="1.1" xmlns:xlink="http://www.w3.org/1999/xlink" viewBox="0 0 252 89">
  <!-- Generator: Adobe Illustrator 29.1.0, SVG Export Plug-In . SVG Version: 2.1.0 Build 142)  -->
  <defs>
    <style>
      .st0 {
        clip-path: url(#clippath-4);
      }

      .st1 {
        fill: #fff;
      }

      .st2 {
        fill: #f45f14;
      }

      .st3 {
        fill: none;
      }

      .st4 {
        clip-path: url(#clippath-1);
      }

      .st5 {
        fill: url(#Degradado_sin_nombre_2);
      }

      .st6 {
        clip-path: url(#clippath-3);
      }

      .st7 {
        clip-path: url(#clippath-2);
      }

      .st8 {
        fill: #00a8ff;
      }

      .st9 {
        clip-path: url(#clippath);
      }
    </style>
    <clipPath id="clippath">
      <circle class="st3" cx="32.1" cy="50.1" r="32.1"/>
    </clipPath>
    <radialGradient id="Degradado_sin_nombre_2" data-name="Degradado sin nombre 2" cx="-655.6" cy="-64.4" fx="-655.6" fy="-64.4" r=".7" gradientTransform="translate(-5169.9 51801.5) rotate(90) scale(78.8)" gradientUnits="userSpaceOnUse">
      <stop offset="0" stop-color="#fab638"/>
      <stop offset=".3" stop-color="#fab638"/>
      <stop offset=".5" stop-color="#ff962e"/>
      <stop offset=".8" stop-color="#ff6f1d"/>
      <stop offset="1" stop-color="#ff6f1d"/>
    </radialGradient>
    <clipPath id="clippath-1">
      <rect class="st3" y="3.6" width="252" height="78.6"/>
    </clipPath>
    <clipPath id="clippath-2">
      <circle class="st3" cx="58.3" cy="12.2" r="8.6" transform="translate(24.7 61.4) rotate(-67.5)"/>
    </clipPath>
    <clipPath id="clippath-3">
      <rect class="st3" y="3.6" width="252" height="78.6"/>
    </clipPath>
    <clipPath id="clippath-4">
      <rect class="st3" x="184.5" y="72.4" width="64.4" height="13"/>
    </clipPath>
  </defs>
  <g id="Grupo_65">
    <g id="Grupo_46">
      <g id="Grupo_47">
        <g class="st9">
          <g id="Grupo_46-2">
            <rect id="Rectángulo_22" class="st5" x="-12.3" y="5.7" width="88.7" height="88.7" transform="translate(-22 25.4) rotate(-32.9)"/>
          </g>
        </g>
      </g>
      <g id="Grupo_49">
        <g class="st4">
          <g id="Grupo_48">
            <path id="Trazado_44" class="st2" d="M44.6,40.8c.6,1.3,1,2.8,1.2,4.2l-26.4,11.2-1.3-3,17-7.2c3.4-1.5,3.5-3.4,2.7-5.4-1.9-4.3-6.9-6.3-11.2-4.4-4.6,1.9-8.2,8-3.9,18.2,3.8,9.1,10.5,12,17.6,9,4.6-1.9,6.5-5.2,7.8-9.3l2.2.6c-.3,6.3-4.2,11.8-10.1,14.1-9.6,4.1-18.6,0-23.2-10.8-4.6-10.9-.3-21.4,8.6-25.1,7.4-3.1,15.3-.6,19,8"/>
          </g>
        </g>
      </g>
      <g id="Grupo_51">
        <g class="st7">
          <g id="Grupo_50">
            <rect id="Rectángulo_24" class="st8" x="49.6" y="3.5" width="17.4" height="17.4" transform="translate(45.3 70.3) rotate(-89.2)"/>
          </g>
        </g>
      </g>
      <g id="Grupo_53">
        <g class="st6">
          <g id="Grupo_52">
            <path id="Trazado_46" class="st1" d="M89.9,61.8l5.5,3c-1.2,1.6-2.6,2.9-4.3,3.8-3.8,2-8.4,1.9-12-.4-3.9-2.5-6.3-6.8-6.2-11.4,0-3.5,1.3-6.8,3.7-9.4,1.1-1.2,2.5-2.2,4-2.9,3.4-1.5,7.3-1.4,10.6.4,1.7.9,3.2,2.3,4.3,3.8l-5.5,3c-.6-.7-1.3-1.2-2.1-1.6-.8-.4-1.6-.6-2.5-.6-1.2,0-2.3.3-3.3,1-1,.7-1.8,1.6-2.3,2.6-1.1,2.2-1.1,4.8,0,7,.5,1,1.3,1.9,2.3,2.6,1.7,1.1,3.9,1.3,5.8.4.8-.4,1.5-.9,2-1.5"/>
            <path id="Trazado_47" class="st1" d="M130,69.9v-27h6.1v3.6c1.8-1.9,4.3-3,6.9-2.9,3.4,0,6.5,1.7,8.3,4.5.9-1.4,2.1-2.5,3.5-3.3,3.1-1.7,6.8-1.6,9.8.1,1.5.9,2.7,2.1,3.6,3.6.9,1.5,1.4,3.3,1.3,5v16.4h-6.1v-14.7c0-.9-.2-1.9-.7-2.7-.5-.8-1.1-1.5-1.9-2-.8-.5-1.7-.8-2.7-.7-.9,0-1.9.2-2.7.7-.8.5-1.5,1.1-1.9,1.9-.5.8-.7,1.8-.7,2.7v14.7h-6.1v-14.7c0-1.9-1-3.7-2.6-4.7-.8-.5-1.7-.7-2.7-.7-.9,0-1.9.2-2.7.7-.8.5-1.5,1.2-1.9,2-.5.8-.7,1.7-.7,2.7v14.7h-6.1Z"/>
            <path id="Trazado_48" class="st1" d="M205.9,60.1v-17.2h6.1v15.6c0,.9.2,1.9.7,2.7.5.8,1.1,1.5,1.9,1.9,1.7,1,3.7,1,5.4,0,.8-.5,1.5-1.1,1.9-1.9.5-.8.7-1.8.7-2.7v-15.6h6.1v26.5s-6.1,0-6.1,0v-2.3c-.9.9-2,1.6-3.1,2.1-1.2.5-2.5.8-3.8.8-1.8,0-3.5-.4-5-1.3-1.5-.9-2.7-2.1-3.6-3.6-.9-1.5-1.4-3.2-1.4-5"/>
            <path id="Trazado_49" class="st1" d="M241.8,69.8c-1.3,0-2.6-.3-3.8-.8-1.2-.4-2.3-1-3.2-1.8-.9-.7-1.7-1.7-2.2-2.8l5.2-2.2c.3.4.6.8,1,1.1.5.4,1,.7,1.6.9.7.3,1.4.4,2.1.4.6,0,1.2,0,1.8-.3.5-.1,1-.4,1.4-.8.4-.4.6-.9.5-1.4,0-.6-.2-1.1-.6-1.4-.5-.4-1-.6-1.6-.8-.6-.2-1.3-.3-1.9-.5-1.5-.3-3-.8-4.4-1.5-1.3-.6-2.4-1.5-3.3-2.6-.8-1.1-1.3-2.5-1.2-3.9,0-1.5.4-3,1.3-4.3.9-1.2,2.1-2.2,3.4-2.8,1.4-.7,3-1,4.6-1,1.9,0,3.8.4,5.5,1.2,1.6.8,3,2,4,3.5l-4.8,2.9c-.3-.4-.6-.8-1-1.1-.4-.4-.9-.6-1.4-.9-.5-.2-1.1-.4-1.7-.4-.7,0-1.4,0-2.1.2-.6.1-1.1.4-1.5.9-.4.4-.6,1-.6,1.6,0,.6.3,1.1.8,1.4.6.3,1.2.6,1.8.7.7.2,1.4.4,2,.6,1.4.5,2.8,1.1,4.2,1.8,1.2.6,2.3,1.5,3.1,2.6.8,1.1,1.2,2.4,1.1,3.7,0,1.5-.5,3.1-1.5,4.3-1,1.2-2.3,2.2-3.8,2.8-1.6.6-3.2.9-4.9.8"/>
            <path id="Trazado_50" class="st1" d="M119.6,42.9v3c-5.9-4.7-14.5-3.7-19.2,2.2s-3.7,14.5,2.2,19.2c5,4,12,4,17,0v2.5h6.3v-26.9h-6.3ZM111.1,64c-4,0-7.3-3.3-7.3-7.3s3.3-7.3,7.3-7.3c4,0,7.3,3.3,7.3,7.3h0c0,4-3.3,7.3-7.3,7.3"/>
            <path id="Trazado_51" class="st1" d="M188.2,42.5c-3.1,0-6.1,1-8.5,3v-2.5h-6.3v39.1h6.3v-15.2c5.9,4.7,14.5,3.7,19.2-2.2,4.7-5.9,3.7-14.5-2.2-19.2-2.4-1.9-5.4-3-8.5-3M188.2,63.5c-4,0-7.3-3.3-7.3-7.3,0-4,3.3-7.3,7.3-7.3,4,0,7.3,3.3,7.3,7.3,0,4-3.3,7.3-7.3,7.3"/>
            <path id="Trazado_52" class="st1" d="M44,40.2c.6,1.3,1,2.8,1.2,4.2l-26.4,11.2-1.3-3,17-7.2c3.4-1.5,3.5-3.4,2.7-5.4-1.9-4.3-6.9-6.3-11.2-4.4-4.6,1.9-8.2,8-3.9,18.2,3.8,9.1,10.5,12,17.6,9,4.6-1.9,6.5-5.2,7.8-9.3l2.2.6c-.3,6.3-4.2,11.8-10.1,14.1-9.6,4.1-18.6,0-23.2-10.8-4.6-10.9-.3-21.4,8.6-25.1,7.4-3.1,15.3-.6,19,8"/>
          </g>
        </g>
      </g>
    </g>
    <g id="Grupo_55">
      <g class="st0">
        <g id="Grupo_54">
          <path id="Trazado_53" class="st8" d="M184.5,82.6v-10.2h2.2v6.5c-.1,0,0,2.2,0,2.2v1.5h-2.1ZM188.9,82.7c-.6,0-1.2-.1-1.7-.4-.5-.3-.9-.7-1.1-1.3-.3-.7-.4-1.4-.4-2.1,0-.7.1-1.5.4-2.2.2-.5.6-1,1.1-1.3.5-.3,1.1-.4,1.6-.4.7,0,1.3.2,1.9.5.6.3,1,.8,1.3,1.3.3.6.5,1.3.5,2,0,.7-.2,1.4-.5,2-.3.6-.8,1-1.3,1.3-.6.3-1.2.5-1.9.5M188.5,81c.3,0,.7,0,1-.3.3-.2.5-.4.7-.7.2-.3.3-.7.3-1.1,0-.4,0-.8-.3-1.1-.3-.6-1-1-1.6-1-.3,0-.7,0-1,.2-.3.2-.5.4-.7.7-.2.3-.3.7-.2,1.1,0,.4,0,.8.2,1.1.2.3.4.5.7.7.3.2.6.3,1,.2"/>
          <path id="Trazado_54" class="st8" d="M194.2,85.4c-.4,0-.8,0-1.1-.2-.3,0-.7-.3-.9-.5l.8-1.5c.2.1.4.3.6.3.2,0,.4.1.6.1.3,0,.5,0,.7-.2.2-.2.4-.4.5-.7l.4-.9.2-.2,2.7-6.4h2.1l-3.4,7.9c-.2.5-.5,1-.8,1.4-.3.3-.6.6-1,.7-.4.1-.8.2-1.2.2M195.4,82.9l-3.3-7.7h2.2l2.6,6.2-1.5,1.5Z"/>
          <path id="Trazado_55" class="st8" d="M208.7,82.8c-1.2,0-2.3-.3-3.2-1.1-.8-.9-1.2-2.1-1.2-3.3v-5.4h2.2v5.3c0,.7.1,1.4.6,2,.9.8,2.3.8,3.2,0,.4-.6.6-1.3.6-2v-5.3h2.2v5.4c0,1.2-.3,2.4-1.2,3.3-.9.8-2,1.2-3.2,1.1"/>
          <path id="Trazado_56" class="st8" d="M214.7,82.6v-9.7h1.8l5.7,6.9h-.9v-6.9h2.2v9.7h-1.8l-5.7-6.9h.9v6.9h-2.2Z"/>
          <path id="Trazado_57" class="st8" d="M227.6,80.8h5.3v1.8h-7.5v-9.7h7.3v1.8h-5.1v6.1ZM227.4,76.9h4.6v1.7h-4.6v-1.7Z"/>
          <path id="Trazado_58" class="st8" d="M234,82.6v-9.7h1.8l4.1,6.8h-1l4-6.8h1.8v9.7s-2.1,0-2.1,0v-6.4s.4,0,.4,0l-3.2,5.4h-1l-3.3-5.4h.5v6.4h-2.1Z"/>
          <rect id="Rectángulo_26" class="st8" x="246.6" y="73" width="2.2" height="9.7"/>
        </g>
      </g>
    </g>
  </g>
</svg>